# xmcd
#
# Track frame offsets:
#	150
#	15231
#	29582
#	44576
#	59665
#	74430
#	90270
#	104942
#	119670
#	134549
#	149824
#	164205
#	179595
#	192599
#	206685
#	221581
#	236031
#	249886
#	264219
#	279200
#	294338
#	307698
#	322384
#
# Disc length: 4484 seconds
#
# Revision: 0
# Processed by: cddbd v1.5.2PL0 Copyright (c) Steve Scherf et al.
# Submitted via: EasyCDDAExtractor 16.0.6.1
#
DISCID=75118217
DTITLE=Συλλογικός δίσκος - Ρεμπέτικα και λαϊκά 2
DYEAR=2009
DGENRE=Ποικίλη
TTITLE0=Παγιουμτζής Στράτος-Περπινιάδης Στελλάκης - Ο Τσιτσάνης στην Παραγουάη
TTITLE0=[1939, Βασίλη Τσιτσάνη]
TTITLE1=Δελλιάς Ανέστης-Παγιουμτζής Στράτος - Τον άντρα σου κι εμένα [1937, Αν
TTITLE1=έστη Δελλιά]
TTITLE2=Σταυροπούλου Νταίζη - Αρχοντοπούλα μου [1940, Κοσμά Κοσμαδόπουλου-Παν.
TTITLE2=Τούντα]
TTITLE3=Βαμβακάρης Μάρκος - Χτές το βράδυ στο σκοτάδι [1935, Μάρκου Βαμβακάρη]
TTITLE4=περπινιάδης Στελλάκης - Η γάτα [1936, Νίκου Μάθεση-Στ. Περπινιάδη]
TTITLE5=Καλυβόπουλος Αντώνης - Γιοβάν Τσαούς [1936, Γιάννη Εϊτζιρίδη ή Γιοβάν 
TTITLE5=Τσαούς]
TTITLE6=Παγιουμτζής Στράτος-Περπινιάδης Στελλάκης - Όμορφη Σμυρνιά [1939, Δημή
TTITLE6=τρη Γκόγκου]
TTITLE7=Μπάτης Γιώργος - Οι φυλακές του Ωρωπού [1934, Γιώργου Μπάτη]
TTITLE8=Παγιουμτζής Στράτος-Περπινιάδης Στελλάκης - Η ψευτοφιλία [1937, Δημήτρ
TTITLE8=η Σέμση]
TTITLE9=Βαμβακάρης Μάρκος - Ο συνάχης [1934, Μάρκου Βαμβακάρη]
TTITLE10=Παγιουμτζής Στράτος-Περπινιάδης Στελλάκης - Για κάποια στα Υδραίϊκα [
TTITLE10=1939, Δημ. Σέμση-Δημ. Γκόγκου]
TTITLE11=Δελλιάς Ανέστης-Παγιουμτζής Στράτος - Αθηναίϊσα [1937, Ανέστη Δελλιά]
TTITLE12=Παπαϊωάννου Γιάννης-Χατζηχρήστος Απόστολος - Βαγγελίτσα [1939, Γιάννη
TTITLE12=Παπαϊωάννου]
TTITLE13=Μαυρίδης Χαράλαμπος-Παγιουμτζής Στράτος - Πιο πέρα από το Ζάνειο [194
TTITLE13=0, Μανώλη Χιώτη]
TTITLE14=Αμπατζή Ρίτα-Βαμβακάρης Μάρκος - Αν είσαι μάγκας και νταής [1936, Μάρ
TTITLE14=κου Βαμβακάρη]
TTITLE15=Χατζηχρήστος Απόστολος - Το παράπονο του αλήτη [1940, Γιάννη Λελάκη-Α
TTITLE15=π. Χατζηχρήστου]
TTITLE16=Καλυβόπουλος Αντώνης - Ο πρεζάκιας [1936, Γιάννη Εϊτζιρίδη]
TTITLE17=Παγιουμτζής Στράτος-Καλλέλη Νότα - Το μινόρε της ταβέρνας [1939, Παν.
TTITLE17=Τούντα, μπ. Β. Τσιτσάνης]
TTITLE18=Γεωργακοπούλου Ιωάννα-Περπινιάδης Στελλάκης - Μπρος στον Άγιο Σπυρίδω
TTITLE18=να[1940, Χαρ. Βασιλειάδη-Ν.Γούναρη, μπ.Μ.Χιώτη]
TTITLE19=Άνευ ερμηνευτού - Ατελείωτο [1938, Βασίλη Τσιτσάνη, μπ. ιδίου]
TTITLE20=Βαμβακάρης Μάρκος-Καρίβαλη Σοφία - Αφ' ότου εγεννήθηκα [1940, Δημήτρη
TTITLE20=Καρυδάκη]
TTITLE21=Γκόγκος Δημήτρης ή Μπαγιαντέρας - Τους Κενταύρους δεν φοβάμαι [1940, 
TTITLE21=Δημ. Γκόγκου, μπ. ιδίου και Μ. Χιώτη]
TTITLE22=Βέμπο Σοφία - Χωριάτα [1949, Γιώργου Φτέρη-Θεόφρ. Σακελλαρίδη]
EXTD=
EXTT0=
EXTT1=
EXTT2=
EXTT3=
EXTT4=
EXTT5=
EXTT6=
EXTT7=
EXTT8=
EXTT9=
EXTT10=
EXTT11=
EXTT12=
EXTT13=
EXTT14=
EXTT15=
EXTT16=
EXTT17=
EXTT18=
EXTT19=
EXTT20=
EXTT21=
EXTT22=
PLAYORDER=
